<svg width="24" height="9" viewBox="0 0 24 9" fill="none" xmlns="http://www.w3.org/2000/svg">
<path d="M7.49414 8.99414H4.44141C4.77539 8.83008 4.93359 8.5957 4.93359 8.05664V4.99805H2.56641V8.05664C2.56641 8.5957 2.72461 8.83008 3.05859 8.99414H0C0.333984 8.83008 0.492188 8.5957 0.492188 8.05664V1.61133C0.492188 1.07812 0.333984 0.837891 0 0.673828H3.05859C2.72461 0.837891 2.56641 1.07812 2.56641 1.61133V4.66992H4.93359V1.61133C4.93359 1.07812 4.77539 0.837891 4.44141 0.673828H7.49414C7.16016 0.837891 7.00195 1.07812 7.00195 1.61133V8.05664C7.00195 8.5957 7.16016 8.83008 7.49414 8.99414ZM11.5898 0.673828C12.9551 0.673828 14.3438 1.30078 14.3438 2.56641C14.3438 3.64453 13.2129 4.20117 12.293 4.35938L13.998 6.47461C14.3262 6.0293 14.5547 5.53125 14.6133 5.05078C14.6191 5.16797 14.625 5.2793 14.625 5.39062C14.625 5.97656 14.5195 6.48047 14.3496 6.91992L15.1465 7.91016C15.3633 8.17969 15.7031 8.46094 16.0312 8.47852C15.6152 8.77148 15.0176 9.00586 14.4492 9.00586C13.9922 9.00586 13.5527 8.85352 13.2305 8.4668L13.1777 8.39648C12.5742 8.80664 11.8418 9 11.1152 9.00586H11.0918C9.14062 9.00586 7.93359 7.81055 7.93359 6.60352C7.93359 5.74805 8.53711 4.88672 9.90234 4.43555C9.53906 4.00781 9.23438 3.56836 9.06445 3.02344C9 2.8125 8.9707 2.61914 8.9707 2.4375C8.9707 1.26562 10.2598 0.673828 11.5723 0.673828H11.5898ZM11.3555 0.896484C10.9219 0.896484 10.5469 1.18945 10.5469 1.64648C10.5469 2.26172 11.3789 3.28125 11.7539 3.72656L12.0586 4.08398C12.4395 3.73242 12.6328 3.13477 12.6328 2.58984C12.6328 2.43164 12.6211 2.27344 12.5859 2.13281C12.3867 1.25391 11.8359 0.896484 11.3555 0.896484ZM10.1602 4.74609C9.7793 4.96289 9.60938 5.36719 9.60938 5.81836C9.60938 6.7793 10.3887 7.93945 11.5898 7.93945C11.9004 7.93945 12.2344 7.86328 12.5977 7.68164C11.7949 6.69727 10.9863 5.71875 10.1602 4.74609ZM21.457 8.99414H18.3984C18.7324 8.83008 18.8906 8.5957 18.8906 8.05664V1.01953C17.8477 1.38281 17.0742 2.36719 16.5 3.33984L16.7285 0.673828H23.1211L23.3555 3.33984C22.7812 2.36719 22.0078 1.38281 20.9648 1.01953V8.05664C20.9648 8.5957 21.1172 8.83008 21.457 8.99414Z" fill="black"/>
</svg> 